<svg xmlns="http://www.w3.org/2000/svg" xmlns:xlink="http://www.w3.org/1999/xlink" viewBox="0 0 1986.26 514.92"><defs><style>.cls-1{fill:url(#未命名的渐变_19);}.cls-2{fill:none;}.cls-3{fill:#aaa;}</style><radialGradient id="未命名的渐变_19" cx="485.9" cy="352.11" r="512.85" gradientUnits="userSpaceOnUse"><stop offset="0" stop-color="#c5c731"/><stop offset="0.18" stop-color="#92bd4c"/><stop offset="0.38" stop-color="#5eb468"/><stop offset="0.57" stop-color="#35ac7e"/><stop offset="0.74" stop-color="#18a78d"/><stop offset="0.89" stop-color="#06a397"/><stop offset="1" stop-color="#00a29a"/></radialGradient></defs><g id="图层_2" data-name="图层 2"><g id="图层_1-2" data-name="图层 1"><path class="cls-1" d="M96.13,257.46a161.35,161.35,0,0,0,299.39,83.48,276.74,276.74,0,0,0,22.15,23,293.51,293.51,0,0,0,52.44,38.64A257.08,257.08,0,0,1,257.46,514.92C115.26,514.92,0,399.63,0,257.46S115.26,0,257.46,0,514.89,115.26,514.89,257.46a257.61,257.61,0,0,1-9.64,70.05A152.42,152.42,0,0,1,454,292.63c-19.57-20.25-30.84-42.95-37.41-61.62a157.7,157.7,0,0,0-7.77-29.43A161.33,161.33,0,0,0,96.13,257.46Z"/><path class="cls-2" d="M505.25,327.51a255.82,255.82,0,0,1-35.14,75,293.51,293.51,0,0,1-52.44-38.64,276.74,276.74,0,0,1-22.15-23,161.33,161.33,0,1,1,13.29-139.36A157.7,157.7,0,0,1,416.58,231c6.57,18.67,17.84,41.37,37.41,61.62A152.42,152.42,0,0,0,505.25,327.51Z"/><path class="cls-3" d="M665.42,449.6q-3.95-3.69-10.36-9.15t-11.12-9l6.61-8.64q4.44,3,11,8.26t10.61,8.89Zm-18.81,52.22a423.94,423.94,0,0,0,15.37-45l10.93,3.05a388,388,0,0,1-15.63,45.48Zm21.6-84.37q-3.44-3.17-9.47-8.06c-4-3.26-7.34-5.79-10-7.56l6.74-9q4.56,3.17,10.29,7.56t9.14,7.55ZM677,492.54V444.13h11.56V424.06H674.18v-10.8h14.36v-21h10.54v21h16.14v10.8H699.08v20.07h11.57v48.41Zm10.29-10.8h13.21V454H687.27Zm32.14-85.63h36v94.65q0,7.75-2.48,11c-1.65,2.16-4.43,3.33-8.32,3.5-.85.08-2,.12-3.56.12a57.74,57.74,0,0,1-6.73-.5l-2-10.8a35.54,35.54,0,0,0,7.36.76c1.95,0,3.33-.55,4.13-1.65s1.21-2.93,1.21-5.47V466.88H729.32a106,106,0,0,1-3.24,22,89,89,0,0,1-7.94,18.74l-9.65-5.72a74.65,74.65,0,0,0,7.11-15.75,81.44,81.44,0,0,0,3-17.53q.76-10,.76-27.7Zm25.54,60v-18.3H729.83v9q0,6.36-.13,9.28Zm0-29.1V407.8H729.83V427Z"/><path class="cls-3" d="M965,413.64H914.57v10.29h43.57v65.82a28.75,28.75,0,0,1-1.27,9.65,8.39,8.39,0,0,1-4.25,4.89,19.2,19.2,0,0,1-8.32,1.47q-9.4,0-16.14-.64L926,494.07q7.62.89,13.72,1,4.2,0,5.53-1.59c.89-1.05,1.33-3.11,1.33-6.16V434.61H870.1V505.5H858.54V423.93h44.08V413.64H851.8V402.59h50.82V390h12v12.58H965Zm-23.64,67H913.93v21.6H902.75V480.6H875.81v-9.28h26.94v-10H878.23V452h14.1a101.63,101.63,0,0,0-8.26-10.29l8-6.1q1.77,1.9,5.59,6.48t6.22,7.75L901.1,452h10.54q7.5-9.52,12-16.52l9,5.47q-3.18,4.57-8.13,11.05h14.35v9.28h-24.9v10h27.44Z"/><path class="cls-3" d="M1171,400.56v9.78H1058v-9.78h51.07q-2.28-5.34-4.19-9l12.45-3.17q2.92,5.59,5.72,12.2ZM1064.87,505.88V449.22h99.35v41.54c0,4-.5,7.05-1.52,9.21a8.77,8.77,0,0,1-5.15,4.58,30.73,30.73,0,0,1-10.22,1.33,91.84,91.84,0,0,1-11.69-.76l-2-10.16a80.36,80.36,0,0,0,12.32,1q4.07,0,5.53-1.78t1.46-6.1V458.75h-76.87v47.13Zm10.55-63.52V417.58h78.13v24.78Zm11.68-8.26h54.76v-8.52H1087.1Zm1.66,31.76h51.45v25.79h-51.45Zm11.18,17.28H1129v-8.89h-29.09Z"/><path class="cls-3" d="M1314.27,483.27l-8.76,1.52v22h-10.68V486.7l-33,5.84-1-11.43,7.25-1V408.43h-5.85V397.38h51v11.05h-7.62v65.18l8.38-1.52Zm-19.44-59.46V408.43H1278.7v15.38Zm0,10.41H1278.7v15.63h16.13Zm-16.13,26v18l16.13-2.79V460.27Zm29.35,40.28a163.94,163.94,0,0,0,12.13-17.47,149,149,0,0,0,9.72-18.62l9.78,5.59a170.7,170.7,0,0,1-10.1,19.76,179.5,179.5,0,0,1-12.13,18.36Zm11.31-101.9h49.29v59.08h-49.29Zm10.8,47.77H1358V409.7h-27.82Zm27.82,18q4.69,7.5,17.41,30.88l3.43,6.35-10,6.23q-3.69-7.38-9.78-18.49t-10.55-18.74Z"/><path class="cls-3" d="M1581.21,475.14v11.18h-50.57v20.45h-11.81V486.32h-50.7V475.14h50.7V463.19h-39.64V407.92h24.14q-5.08-7.11-10.17-12.95l9.79-5.72a177.19,177.19,0,0,1,11.69,15.12l-5.85,3.55h24.14q3.43-4.19,10.67-14.73l2.54-3.82,10.93,4.58-2.79,4.06-2.93,4.2c-1.18,1.69-2.58,3.6-4.19,5.71h23v55.27h-39.52v11.95Zm-62.38-44.6V418.6h-27.7v11.94Zm-27.7,10.16v12.07h27.7V440.7Zm39.51-10.16h27.7V418.6h-27.7Zm0,10.16v12.07h27.7V440.7Z"/><path class="cls-3" d="M1708.77,449.09q-6.35,2.67-9.65,4.07v38.75a19.58,19.58,0,0,1-1.4,8.25,8.11,8.11,0,0,1-4.19,4.13,23.24,23.24,0,0,1-7.75,1.47,68.53,68.53,0,0,1-10-.64l-2.29-11.18a50,50,0,0,0,9.4,1.14q2.67,0,3.69-1.59t1-5.4V458q-11.31,4.71-14.61,6.23l-2.54-12.07q7-2.42,17.15-6.61V424.31h-13.84V413h13.84V390.52h11.57V413h12.19v11.3h-12.19V440.7l7.87-3.3Zm30.5-21a41,41,0,0,1-7.37,11.49A80.23,80.23,0,0,1,1718.68,451l-7.87-9.15a88.78,88.78,0,0,0,12.26-9.53,26.58,26.58,0,0,0,6.09-8.89,52.28,52.28,0,0,0,3-13l.25-2.16h-17.91V396.74h68.61q0,6-.83,15.69T1780.43,428a38.84,38.84,0,0,1-2.92,10,11.41,11.41,0,0,1-5.15,5.34,21.53,21.53,0,0,1-9.21,1.84,102.47,102.47,0,0,1-15.75-.63l-2.16-11.18q9.39,1,14.23,1c3.13,0,5.35-.65,6.67-2s2.26-4,2.86-7.94a105.58,105.58,0,0,0,1.52-16.13h-26.68a41.26,41.26,0,0,1-.76,5.33A62.39,62.39,0,0,1,1739.27,428.13ZM1728.72,507H1717V453.92h63.65V507h-11.56v-7h-40.4Zm40.4-18V465h-40.4v24Z"/><path class="cls-3" d="M1883.72,395.85h102.54v92.24q0,7.5-1.72,11.12a9.29,9.29,0,0,1-6,5q-4.26,1.33-13,1.33a75.85,75.85,0,0,1-10.8-.76l-2.29-11.31a127.22,127.22,0,0,0,14.36.89c3,0,5-.63,6-1.91s1.52-3.76,1.52-7.49V407.29h-78.77v98.85h-11.82Zm21.22,92.88-9.4-6.61a210,210,0,0,0,18-31.25q-9-18.67-14.23-27.95l9-5.21q3.06,5.32,10.8,20.45a224.79,224.79,0,0,0,8.51-24l9.91,3.43a318,318,0,0,1-12.07,33.16l9.66,19.31-9.78,5.85-1.15-2.42q-3.3-7.23-4.7-9.91A203.54,203.54,0,0,1,1904.94,488.73Zm59.08-4.57q-4.95-10.68-9.91-20.33a220,220,0,0,1-17.28,27.7l-9.27-6.48A205.45,205.45,0,0,0,1948,451.76q-7.23-14.24-12.19-22.62l8.89-6,2.41,4.45,6.48,11.94a218.21,218.21,0,0,0,8.39-23.63l9.78,3.43A232.17,232.17,0,0,1,1960,451.89q7.88,15.24,13.46,26.68Z"/><path d="M816.56,154.16V307.22h161v34.6H643.94v-34.6H778.57V13.14h38V119.19H953.07v35Z"/><path d="M1265.79,282a37.47,37.47,0,0,0,69.53,19.39,64.44,64.44,0,0,0,5.15,5.34,68.12,68.12,0,0,0,12.17,9,59.39,59.39,0,1,1,8.17-17.43,35.2,35.2,0,0,1-11.91-8.1,39.34,39.34,0,0,1-8.69-14.31,36.61,36.61,0,0,0-1.8-6.84,37.47,37.47,0,0,0-72.62,13Z"/><path class="cls-2" d="M1360.81,298.29a59.25,59.25,0,0,1-8.17,17.43,68.12,68.12,0,0,1-12.17-9,64.44,64.44,0,0,1-5.15-5.34,37.47,37.47,0,1,1,3.09-32.37,36.61,36.61,0,0,1,1.8,6.84,39.34,39.34,0,0,0,8.69,14.31A35.2,35.2,0,0,0,1360.81,298.29Z"/><path d="M1474.36,42.85v29H1140v-29h151.18q-6.77-15.8-12.41-26.7l36.85-9.4q8.65,16.55,16.93,36.1Zm-314,311.75V186.88h294.08v123q0,17.68-4.51,27.27t-15.23,13.54q-10.73,3.94-30.28,3.94a273.73,273.73,0,0,1-34.59-2.25l-6-30.09a235.17,235.17,0,0,0,36.48,3q12,0,16.36-5.26T1421,302V215.09H1193.44V354.6Zm31.21-188V93.24h231.28v73.33Zm34.6-24.44h162.08v-25.2H1226.16Z"/><path d="M1911.53,89a52.1,52.1,0,0,0-81,59.33,89.2,89.2,0,0,0-10.25,1,94.74,94.74,0,0,0-20.28,5.59,82.58,82.58,0,1,1,12,23.9,49.37,49.37,0,0,1,19.09-6,54.65,54.65,0,0,1,23.11,2.81,51.1,51.1,0,0,0,9,3.9A52.09,52.09,0,0,0,1911.53,89Z"/><path class="cls-2" d="M1812.08,178.82a82.78,82.78,0,0,1-12-23.9,94.74,94.74,0,0,1,20.28-5.59,89.2,89.2,0,0,1,10.25-1,52.1,52.1,0,1,1,32.72,31.19,51.1,51.1,0,0,1-9-3.9,54.65,54.65,0,0,0-23.11-2.81A49.37,49.37,0,0,0,1812.08,178.82Z"/><path d="M1795.22,287.67l-26,4.51v65.06h-31.59V297.82l-97.78,17.3-3-33.85,21.44-3V66.17H1641V33.45h150.8V66.17h-22.56V259.09l24.82-4.52Zm-57.54-176V66.17h-47.76v45.5Zm0,30.84h-47.76v46.25h47.76Zm-47.76,77.09V273l47.76-8.27V219.6Zm86.87,119.21a484.23,484.23,0,0,0,35.91-51.71A441.49,441.49,0,0,0,1841.47,232l29,16.55q-11.28,26.7-29.9,58.47t-35.91,54.34ZM1924.58,232q13.9,22.19,51.52,91.38l10.16,18.8-29.71,18.43q-10.92-21.81-29-54.71t-31.21-55.47Z"/></g></g></svg>