<svg xmlns="http://www.w3.org/2000/svg" viewBox="0 0 10.24 13.19"><defs><style>.cls-1{fill:#e68c0c;}</style></defs><g id="图层_2" data-name="图层 2"><g id="图层_1-2" data-name="图层 1"><path class="cls-1" d="M0,10.91,1.73,9.5A3.57,3.57,0,0,0,4.53,11c1.37,0,2.28-.63,2.28-1.75s-.73-1.79-3.34-1.8l.37-1.94c2.76,0,3.6-.85,3.6-2,0-.82-.63-1.33-1.66-1.33A3.93,3.93,0,0,0,3.52,3L2.3,1.35A6.42,6.42,0,0,1,6.28,0c2.34,0,4,1.18,4,3,0,1.65-.78,2.73-2.94,3.42v.07A2.86,2.86,0,0,1,9.54,9.24c0,2.59-2.15,3.95-5,3.95A5.49,5.49,0,0,1,0,10.91Z"/></g></g></svg>