<svg xmlns="http://www.w3.org/2000/svg" viewBox="0 0 10.39 13.19"><defs><style>.cls-1{fill:#a7a7ab;}</style></defs><g id="图层_2" data-name="图层 2"><g id="图层_1-2" data-name="图层 1"><path class="cls-1" d="M0,8.58C0,3.24,2.94,0,6.8,0a4.35,4.35,0,0,1,3.59,1.77L8.66,3.22a2.3,2.3,0,0,0-2-1c-2.1,0-4.09,2-4.09,6.62,0,1.53.86,2.33,2,2.33A2.46,2.46,0,0,0,6.83,8.54a1.57,1.57,0,0,0-1.74-1.7A3.32,3.32,0,0,0,2.43,8.36l.23-1.95A4.58,4.58,0,0,1,5.82,5C7.74,5,9.34,6,9.34,8.3a4.91,4.91,0,0,1-4.92,4.89A4.26,4.26,0,0,1,0,8.58Z"/></g></g></svg>