<svg xmlns="http://www.w3.org/2000/svg" viewBox="0 0 9.85 13.19"><defs><style>.cls-1{fill:#a7a7ab;}</style></defs><g id="图层_2" data-name="图层 2"><g id="图层_1-2" data-name="图层 1"><path class="cls-1" d="M0,10.09c0-1.71.9-2.85,2.94-3.7V6.31A3.72,3.72,0,0,1,1.6,3.63C1.6,1.38,3.49,0,6.05,0c2.09,0,3.8,1,3.8,2.89A3.7,3.7,0,0,1,7.47,6.31v.08A3.36,3.36,0,0,1,9.13,9.26c0,2.35-1.92,3.93-4.92,3.93C1.58,13.19,0,12,0,10.09Zm6.62-.51c0-1-1-1.54-2.52-2.36A2.91,2.91,0,0,0,2.44,9.56a1.75,1.75,0,0,0,2,1.69C5.55,11.25,6.62,10.71,6.62,9.58Zm.89-6.22c0-.89-.65-1.42-1.66-1.42A1.64,1.64,0,0,0,4,3.46c0,.93,1,1.6,2.08,2.16A2.68,2.68,0,0,0,7.51,3.36Z"/></g></g></svg>