<svg xmlns="http://www.w3.org/2000/svg" viewBox="0 0 10.39 13.19"><defs><style>.cls-1{fill:#a7a7ab;}</style></defs><g id="图层_2" data-name="图层 2"><g id="图层_1-2" data-name="图层 1"><path class="cls-1" d="M0,11.41,1.73,10a2.27,2.27,0,0,0,2,1c2.1,0,4.09-2,4.09-6.62C7.85,2.83,7,2,5.83,2A2.45,2.45,0,0,0,3.56,4.65,1.57,1.57,0,0,0,5.3,6.35,3.36,3.36,0,0,0,8,4.82l-.24,2A4.62,4.62,0,0,1,4.57,8.22c-1.92,0-3.52-1-3.52-3.33A4.92,4.92,0,0,1,6,0a4.25,4.25,0,0,1,4.42,4.61c0,5.33-2.94,8.58-6.8,8.58A4.36,4.36,0,0,1,0,11.41Z"/></g></g></svg>