<svg xmlns="http://www.w3.org/2000/svg" viewBox="0 0 22.83 24.17"><defs><style>.cls-1{fill:#ca3c78;}.cls-2{fill:#6ed3c9;}.cls-3{fill:#f7f6f6;}</style></defs><g id="图层_2" data-name="图层 2"><g id="图层_1-2" data-name="图层 1"><path class="cls-1" d="M17.55.23H13.12v16h0a3.48,3.48,0,1,1-3.48-3.48V8.36a7.91,7.91,0,1,0,7.91,7.9h0V7.41c0,1.57,5.28,3.38,5.28,3.38V6.54C19.88,6.65,17.55.23,17.55.23Z"/><path class="cls-2" d="M15.81,0H11.38V16h0a3.49,3.49,0,1,1-3.48-3.48V8.13a7.91,7.91,0,1,0,7.9,7.9h0V7.18c0,1.57,5.28,3.38,5.28,3.38V6.31C18.14,6.42,15.81,0,15.81,0Z"/><path class="cls-3" d="M16.86.23H12.43v16h0A3.49,3.49,0,1,1,9,12.78V8.36a7.91,7.91,0,1,0,7.91,7.9h0V7.41c0,1.57,5.28,3.38,5.28,3.38V6.54C19.19,6.65,16.86.23,16.86.23Z"/></g></g></svg>