<svg xmlns="http://www.w3.org/2000/svg" viewBox="0 0 17.93 14.45"><defs><style>.cls-1{fill:#02a297;}.cls-2{fill:#fff;}</style></defs><g id="图层_2" data-name="图层 2"><g id="图层_1-2" data-name="图层 1"><path class="cls-1" d="M9.55,11.38,6,9.65a1,1,0,0,0-1.4.5L4.14,11a1.06,1.06,0,0,0,.5,1.41l3.59,1.72a1.05,1.05,0,0,0,1.4-.49l.42-.87A1,1,0,0,0,9.55,11.38ZM8.45,13l-3-1.46.47-1L8.92,12Z"/><path class="cls-2" d="M8.68,14.38a1.16,1.16,0,0,1-.51-.12L4.58,12.53A1.18,1.18,0,0,1,4,11l.42-.87a1.21,1.21,0,0,1,.67-.61,1.25,1.25,0,0,1,.91,0l3.59,1.73h0a1.19,1.19,0,0,1,.56,1.58l-.42.86a1.2,1.2,0,0,1-.68.61A1.28,1.28,0,0,1,8.68,14.38ZM5.51,9.68a1.06,1.06,0,0,0-.31.05.89.89,0,0,0-.52.47l-.42.87a.92.92,0,0,0,.43,1.23L8.28,14a.92.92,0,0,0,1.23-.43l.42-.87a.9.9,0,0,0,0-.7.94.94,0,0,0-.47-.53h0L5.91,9.77A1,1,0,0,0,5.51,9.68Zm3,3.48L5.23,11.58l.58-1.22,3.28,1.58Zm-2.93-1.7,2.81,1.35.35-.75L5.93,10.71Z"/><path class="cls-1" d="M2.94,5.15l-2.28.3A2.93,2.93,0,0,0,.13,7.21,3,3,0,0,0,.66,9l2.28.3,9.62,4.41V.73Z"/><path class="cls-2" d="M12.69,13.89,2.9,9.39.59,9.09l0,0A3,3,0,0,1,0,7.21H0A3.07,3.07,0,0,1,.56,5.36l0,0L2.9,5,12.69.53ZM.73,8.84,3,9.14l9.45,4.34V.93L3,5.28H3L.73,5.57A3,3,0,0,0,.26,7.21,3,3,0,0,0,.73,8.84Z"/><path class="cls-1" d="M14,.13c-2.1,0-3.8,3.18-3.8,7.1s1.7,7.09,3.8,7.09,3.8-3.18,3.8-7.09S16.1.13,14,.13Zm0,9c-.56,0-1-.85-1-1.9s.46-1.91,1-1.91,1,.85,1,1.91S14.57,9.13,14,9.13Z"/><path class="cls-2" d="M14,14.45c-1.06,0-2.06-.76-2.8-2.15a10.9,10.9,0,0,1-1.13-5.07A11,11,0,0,1,11.2,2.15C11.94.76,12.94,0,14,0s2.06.76,2.8,2.15a11,11,0,0,1,1.13,5.08A10.9,10.9,0,0,1,16.8,12.3C16.06,13.69,15.07,14.45,14,14.45ZM14,.26c-2,0-3.67,3.13-3.67,7s1.65,7,3.67,7,3.67-3.12,3.67-7S16,.26,14,.26Zm0,9c-.65,0-1.15-.9-1.15-2s.5-2,1.15-2,1.16.89,1.16,2S14.65,9.27,14,9.27Zm0-3.82c-.48,0-.89.81-.89,1.78S13.52,9,14,9s.89-.81.89-1.77S14.49,5.45,14,5.45Z"/></g></g></svg>