<svg xmlns="http://www.w3.org/2000/svg" viewBox="0 0 65 65"><defs><style>.cls-1{fill:#b5910b;}.cls-2{fill:#fff;}.cls-3{fill:none;stroke:#fff;stroke-miterlimit:10;stroke-width:3px;}</style></defs><g id="图层_2" data-name="图层 2"><g id="图层_1-2" data-name="图层 1"><circle class="cls-1" cx="32.5" cy="32.5" r="32.5"/><path class="cls-2" d="M35.09,19H31.65a17.21,17.21,0,0,0-2,1.8h7.47A17.31,17.31,0,0,0,35.09,19Z"/><path class="cls-2" d="M26.93,24.43H39.81a17.32,17.32,0,0,0-1.12-1.79H28.06A17.41,17.41,0,0,0,26.93,24.43Z"/><path class="cls-2" d="M25.46,28.12H41.29a18.08,18.08,0,0,0-.6-1.8H26.05A15.78,15.78,0,0,0,25.46,28.12Z"/><path class="cls-2" d="M24.91,31.8H41.84A17.5,17.5,0,0,0,41.68,30H25.07A15.07,15.07,0,0,0,24.91,31.8Z"/><path class="cls-2" d="M25.15,35.48H41.59a14.83,14.83,0,0,0,.23-1.79H24.92C25,34.3,25.05,34.9,25.15,35.48Z"/><path class="cls-2" d="M26.25,39.17H40.5a15.86,15.86,0,0,0,.64-1.79H25.6A18.15,18.15,0,0,0,26.25,39.17Z"/><path class="cls-2" d="M28.42,42.85h9.91a17,17,0,0,0,1.21-1.79H27.2A17.09,17.09,0,0,0,28.42,42.85Z"/><path class="cls-2" d="M32.34,46.54h2.07a18.19,18.19,0,0,0,2.21-1.79H30.13A17.45,17.45,0,0,0,32.34,46.54Z"/><circle class="cls-3" cx="39.1" cy="32.48" r="15.39"/><path class="cls-2" d="M24.88,32.5a17,17,0,0,1,8.49-14.69,17,17,0,1,0,0,29.38A17,17,0,0,1,24.88,32.5Z"/></g></g></svg>