<svg xmlns="http://www.w3.org/2000/svg" viewBox="0 0 65 65"><defs><style>.cls-1{fill:#db4646;}.cls-2{fill:#fff;}</style></defs><g id="图层_2" data-name="图层 2"><g id="图层_1-2" data-name="图层 1"><circle class="cls-1" cx="32.5" cy="32.5" r="32.5"/><path class="cls-2" d="M36.54,49.93h-.09a2.09,2.09,0,0,1-2-1.67L30,26l-2,6.88a2.1,2.1,0,0,1-2,1.52H14.79a2.1,2.1,0,1,1,0-4.19H24.4l3.91-13.61a2.14,2.14,0,0,1,2.1-1.52,2.11,2.11,0,0,1,2,1.68l4.54,22.38,2.37-8.05a2.1,2.1,0,0,1,2-1.51h8.91a2.1,2.1,0,1,1,0,4.2H42.87L38.55,48.42A2.1,2.1,0,0,1,36.54,49.93Z"/></g></g></svg>