<svg xmlns="http://www.w3.org/2000/svg" xmlns:xlink="http://www.w3.org/1999/xlink" viewBox="0 0 74.46 16.53"><defs><style>.cls-1{fill:url(#未命名的渐变_4);}.cls-2{fill:url(#未命名的渐变_4-2);}.cls-3{fill:url(#未命名的渐变_4-3);}.cls-4{fill:#06a397;}.cls-5{fill:url(#未命名的渐变_2);}</style><linearGradient id="未命名的渐变_4" x1="8.04" y1="-6.14" x2="6.71" y2="45.86" gradientUnits="userSpaceOnUse"><stop offset="0" stop-color="#f90201"/><stop offset="1" stop-color="#fad60c"/></linearGradient><linearGradient id="未命名的渐变_4-2" x1="46.56" y1="-6.45" x2="46.71" y2="31.48" xlink:href="#未命名的渐变_4"/><linearGradient id="未命名的渐变_4-3" x1="66.28" y1="-6.88" x2="65.98" y2="33.42" xlink:href="#未命名的渐变_4"/><radialGradient id="未命名的渐变_2" cx="34.13" cy="6.8" r="8.11" gradientUnits="userSpaceOnUse"><stop offset="0" stop-color="#c5c731"/><stop offset="0.18" stop-color="#92bd4c"/><stop offset="0.38" stop-color="#5eb468"/><stop offset="0.57" stop-color="#35ac7e"/><stop offset="0.74" stop-color="#18a78d"/><stop offset="0.89" stop-color="#06a397"/><stop offset="1" stop-color="#00a29a"/></radialGradient></defs><g id="图层_2" data-name="图层 2"><g id="图层_1-2" data-name="图层 1"><path class="cls-1" d="M15.63,1.86V3.28H0V1.86H7.12C7,1.38,6.78.84,6.62.39L8.3,0c.23.57.52,1.29.7,1.86Zm-.48,13c0,.79-.2,1.09-.75,1.31a8.13,8.13,0,0,1-2.59.2,5.11,5.11,0,0,0-.52-1.24c.76,0,1.65,0,1.85,0s.32-.07.32-.29V10.06H2.21v6.47H.57V8.68H15.15ZM13.32,4.14V7.82H2.56V4.14ZM5.49,14.72v.82H3.94v-4.6h7.61v3.78Zm6.07-9.41H4.21V6.63h7.35ZM5.49,12.14v1.38h4.59V12.14Z"/><path class="cls-2" d="M47.93,9.66c-1,3.19-3.24,5.53-8.32,6.82a5,5,0,0,0-1-1.4c4.43-1.08,6.51-2.89,7.5-5.42H38.72V8.12h7.87A41.65,41.65,0,0,0,47,.22h1.73a48.76,48.76,0,0,1-.43,7.9h6.29V9.66ZM43.47,7.53a17.22,17.22,0,0,0-4.06-2.31l1-1.15a16.4,16.4,0,0,1,4.12,2.15Zm1.61-3.39A16,16,0,0,0,41,1.94L41.92.75A16.93,16.93,0,0,1,46.05,2.8Zm3.12,7A29.57,29.57,0,0,1,54.64,15l-1.1,1.27a27.71,27.71,0,0,0-6.22-3.93Z"/><path class="cls-3" d="M71.47,2.22A11.07,11.07,0,0,1,67.86,6a25.74,25.74,0,0,0,6.6,1.61,6.44,6.44,0,0,0-1,1.49,23.06,23.06,0,0,1-7.22-2.17,26.27,26.27,0,0,1-7.6,2.33,6.38,6.38,0,0,0-.77-1.49A25.18,25.18,0,0,0,64.65,6a14.42,14.42,0,0,1-2.2-1.92A16.42,16.42,0,0,1,59.7,5.9a4.88,4.88,0,0,0-1.16-1.24A11.93,11.93,0,0,0,63.86.05l1.83.33c-.27.43-.55.84-.86,1.25h5.22l.29-.07Zm-7.75,10.2a15.22,15.22,0,0,1-3.8,3.48,8.78,8.78,0,0,0-1.11-1.18,13,13,0,0,0,3.58-2.89ZM67,11.31v3.5c0,.77-.16,1.18-.7,1.42a6.15,6.15,0,0,1-2.36.25A6.49,6.49,0,0,0,63.43,15,15,15,0,0,0,65,15c.21,0,.29,0,.29-.25V11.31H59.88V9.88h5.44V8.18H67v1.7h5.56v1.43ZM63.56,3.08a10.27,10.27,0,0,0,2.67,2.1,10.12,10.12,0,0,0,2.65-2.13h-5.3Zm6.08,8.75A21.08,21.08,0,0,1,73,15.08L71.7,16a20.25,20.25,0,0,0-3.26-3.35Z"/><path class="cls-4" d="M25.31,13v3.53H23.77V13.29c-1.67.26-3.27.55-4.56.78l-.34-1.56L20,12.35v-10h-.91V.82h7.17V2.33h-1v9.2l1-.16.09,1.43ZM21.54,2.33V4.54h2.23V2.33Zm0,5.85h2.23V5.92H21.54Zm0,3.94,2.23-.34V9.56H21.54Zm8.25-.75A13.61,13.61,0,0,1,27,16.49a12,12,0,0,0-1.38-.95A10.46,10.46,0,0,0,28.18,11Zm3.27-.45a25.38,25.38,0,0,1,2.34,4.82l-1.59.65a24.32,24.32,0,0,0-2.21-4.9Z"/><path class="cls-5" d="M28,5.31A2.56,2.56,0,0,0,32.7,6.63a3.86,3.86,0,0,0,.35.36,4.35,4.35,0,0,0,.83.61,4.07,4.07,0,1,1,.71-2.29,4.14,4.14,0,0,1-.16,1.11,2.51,2.51,0,0,1-.81-.56,2.63,2.63,0,0,1-.59-1,3.59,3.59,0,0,0-.12-.47A2.55,2.55,0,0,0,28,5.31Z"/></g></g></svg>