<svg xmlns="http://www.w3.org/2000/svg" viewBox="0 0 13.19 11.99"><defs><style>.cls-1{fill:#b5b5b5;}</style></defs><g id="图层_2" data-name="图层 2"><g id="图层_1-2" data-name="图层 1"><path class="cls-1" d="M12,5.59H8.79A1.19,1.19,0,0,1,7.59,4.4V1.2A1.2,1.2,0,0,1,8.79,0H12a1.2,1.2,0,0,1,1.2,1.2V4.4A1.19,1.19,0,0,1,12,5.59ZM8.79.8a.4.4,0,0,0-.4.4V4.4a.4.4,0,0,0,.4.4H12a.4.4,0,0,0,.4-.4V1.2A.4.4,0,0,0,12,.8Z"/><rect class="cls-1" y="1.6" width="4.8" height="0.8"/><rect class="cls-1" y="4.8" width="4.8" height="0.8"/><rect class="cls-1" y="7.99" width="12.79" height="0.8"/><rect class="cls-1" y="11.19" width="12.79" height="0.8"/></g></g></svg>