<svg xmlns="http://www.w3.org/2000/svg" viewBox="0 0 17.93 17.64"><defs><style>.cls-1{fill:#b5b1b1;}</style></defs><g id="图层_2" data-name="图层 2"><g id="图层_1-2" data-name="图层 1"><path class="cls-1" d="M8.36,8.36H0V0H8.36ZM.75,7.61H7.61V.75H.75Z"/><path class="cls-1" d="M8.36,17.64H0V9.28H8.36ZM.75,16.89H7.61V10H.75Z"/><path class="cls-1" d="M17.93,17.64H9.56V9.28h8.37Zm-7.62-.75h6.87V10H10.31Z"/><path class="cls-1" d="M13.75,8.36a4.18,4.18,0,1,1,4.18-4.18A4.19,4.19,0,0,1,13.75,8.36Zm0-7.61a3.43,3.43,0,1,0,3.43,3.43A3.44,3.44,0,0,0,13.75.75Z"/></g></g></svg>