<svg xmlns="http://www.w3.org/2000/svg" viewBox="0 0 17.7 21.44"><defs><style>.cls-1{fill:#fff;}</style></defs><g id="图层_2" data-name="图层 2"><g id="图层_1-2" data-name="图层 1"><path class="cls-1" d="M14.24,21.44H9.08V20.39h5.16A2.41,2.41,0,0,0,16.65,18V8.85a7.8,7.8,0,0,0-15.6,0v8.2H0V8.85a8.85,8.85,0,0,1,17.7,0V18A3.46,3.46,0,0,1,14.24,21.44Z"/><path class="cls-1" d="M.52,9.57H1.91A1.09,1.09,0,0,1,3,10.66V16a1.09,1.09,0,0,1-1.09,1.09H.52a0,0,0,0,1,0,0V9.57A0,0,0,0,1,.52,9.57Z"/><path class="cls-1" d="M14.52,9.57h1.39A1.09,1.09,0,0,1,17,10.66V16a1.09,1.09,0,0,1-1.09,1.09H14.52a0,0,0,0,1,0,0V9.57A0,0,0,0,1,14.52,9.57Z" transform="translate(31.52 26.63) rotate(180)"/></g></g></svg>