<svg xmlns="http://www.w3.org/2000/svg" viewBox="0 0 18.25 18"><defs><style>.cls-1{fill:#b5b1b1;}</style></defs><g id="图层_2" data-name="图层 2"><g id="图层_1-2" data-name="图层 1"><path class="cls-1" d="M11.75,4H2.25A2.25,2.25,0,0,0,0,6.25v9.5A2.25,2.25,0,0,0,2.25,18h9.5A2.25,2.25,0,0,0,14,15.75V6.25A2.25,2.25,0,0,0,11.75,4ZM10.5,12H8v2.5H6V12H3.5V10H6V7.5H8V10h2.5Z"/><path class="cls-1" d="M16,0H6.5A2.23,2.23,0,0,0,4.28,2H13.5a2.25,2.25,0,0,1,2.25,2.25v9.5a1.9,1.9,0,0,1,0,.25H16a2.25,2.25,0,0,0,2.25-2.25V2.25A2.25,2.25,0,0,0,16,0Z"/></g></g></svg>