<svg xmlns="http://www.w3.org/2000/svg" viewBox="0 0 14 13.36"><defs><style>.cls-1{fill:#fff;}</style></defs><g id="图层_2" data-name="图层 2"><g id="图层_1-2" data-name="图层 1"><path class="cls-1" d="M4.64,5.88A.92.92,0,0,1,3.73,5h0a.91.91,0,1,1,.91.91Zm4.72,0A.9.9,0,0,1,8.45,5h0a.91.91,0,1,1,1.82,0A.91.91,0,0,1,9.36,5.88ZM3.1,11.65l.54-.33a3,3,0,0,1,2-.4l.39.05A7.14,7.14,0,0,0,7,11c3.33,0,5.95-2.28,5.95-5s-2.62-5-5.95-5-5.95,2.28-5.95,5A4.35,4.35,0,0,0,2.13,8.91l.16.18a3,3,0,0,1,.83,2.34l0,.22Zm-.21,1.6a.7.7,0,0,1-1-.22.74.74,0,0,1-.11-.44L2,11a1.43,1.43,0,0,0-.39-1.1,2.5,2.5,0,0,1-.22-.24A5.55,5.55,0,0,1,0,6.08C0,2.72,3.13,0,7,0s7,2.72,7,6.08-3.13,6.08-7,6.08a7.45,7.45,0,0,1-1.06-.07L5.54,12a1.47,1.47,0,0,0-1,.19l-1.69,1Z"/></g></g></svg>