<svg xmlns="http://www.w3.org/2000/svg" viewBox="0 0 36.72 24.17"><defs><style>.cls-1{fill:#02a241;}</style></defs><g id="图层_2" data-name="图层 2"><g id="图层_1-2" data-name="图层 1"><path class="cls-1" d="M17.13,15.89c0,3.84,4.39,7,9.8,7a14.38,14.38,0,0,0,1.62-.1h.11a6.92,6.92,0,0,1,2.66.68c.58.21,1.22.46,1.91.75a3.54,3.54,0,0,1-.52-2.67h0c2.45-1.27,4-3.31,4-5.62,0-3.84-4.38-7-9.79-7S17.13,12.05,17.13,15.89Zm12.16-1.48a1.38,1.38,0,1,1,1.37,1.32A1.34,1.34,0,0,1,29.29,14.41Zm-7.47,0a1.38,1.38,0,1,1,1.37,1.32A1.34,1.34,0,0,1,21.82,14.41Z"/><path class="cls-1" d="M16.84,15.66c0-3.17,3-5.83,7.05-6.67a4.21,4.21,0,0,0,0-.5C23.93,3.8,18.57,0,12,0S0,3.8,0,8.49c0,2.82,2,5.32,4.93,6.86h0a4.3,4.3,0,0,1-.64,3.26c.85-.35,1.63-.65,2.33-.92a8.69,8.69,0,0,1,3.26-.83H10A15.9,15.9,0,0,0,12,17a16.16,16.16,0,0,0,4.92-.75A5.46,5.46,0,0,1,16.84,15.66ZM7.4,8.3A1.66,1.66,0,0,1,5.72,6.68a1.68,1.68,0,0,1,3.36,0A1.65,1.65,0,0,1,7.4,8.3Zm7.45-1.62A1.68,1.68,0,1,1,16.52,8.3,1.64,1.64,0,0,1,14.85,6.68Z"/></g></g></svg>